<svg id="visual" viewBox="0 0 900 600" width="900" height="600" xmlns="http://www.w3.org/2000/svg" xmlns:xlink="http://www.w3.org/1999/xlink" version="1.1"><rect x="0" y="0" width="900" height="600" fill="#12071a"></rect><path d="M448 0L435 0L435 86L418 86L418 171L437 171L437 257L513 257L513 343L458 343L458 429L432 429L432 514L333 514L333 600L0 600L0 514L0 514L0 429L0 429L0 343L0 343L0 257L0 257L0 171L0 171L0 86L0 86L0 0L0 0Z" fill="#9900ff"></path><path d="M231 0L357 0L357 86L282 86L282 171L208 171L208 257L370 257L370 343L218 343L218 429L288 429L288 514L221 514L221 600L0 600L0 514L0 514L0 429L0 429L0 343L0 343L0 257L0 257L0 171L0 171L0 86L0 86L0 0L0 0Z" fill="#7700c6"></path><path d="M112 0L192 0L192 86L147 86L147 171L154 171L154 257L232 257L232 343L223 343L223 429L176 429L176 514L100 514L100 600L0 600L0 514L0 514L0 429L0 429L0 343L0 343L0 257L0 257L0 171L0 171L0 86L0 86L0 0L0 0Z" fill="#560090"></path></svg>