<svg id="visual" viewBox="0 0 900 600" width="900" height="600" xmlns="http://www.w3.org/2000/svg" xmlns:xlink="http://www.w3.org/1999/xlink" version="1.1"><rect x="0" y="0" width="900" height="600" fill="#001122"></rect><g transform="translate(451.05468621368334 267.3823973422851)"><path d="M169.1 -245.3C235.4 -184.6 316.5 -156.9 347.2 -103.2C377.9 -49.4 358.2 30.3 340.3 118.3C322.3 206.3 306 302.6 249.6 371.7C193.2 440.9 96.6 482.9 7.1 473.2C-82.5 463.5 -165 402.1 -231.1 336C-297.2 270 -346.9 199.4 -361 124.7C-375 50 -353.5 -28.9 -319.7 -94.9C-285.9 -160.9 -240 -213.9 -184.6 -278.1C-129.3 -342.3 -64.7 -417.7 -6.6 -408.6C51.4 -399.5 102.9 -305.9 169.1 -245.3" fill="#2b1251"></path></g></svg>