<svg id="visual" viewBox="0 0 1080 1920" width="1080" height="1920" xmlns="http://www.w3.org/2000/svg" xmlns:xlink="http://www.w3.org/1999/xlink" version="1.1"><rect x="0" y="0" width="1080" height="1920" fill="#140021"></rect><path d="M0 485L154 485L154 523L309 523L309 434L463 434L463 445L617 445L617 446L771 446L771 519L926 519L926 520L1080 520L1080 438L1080 0L1080 0L926 0L926 0L771 0L771 0L617 0L617 0L463 0L463 0L309 0L309 0L154 0L154 0L0 0Z" fill="#9900ff"></path><path d="M0 308L154 308L154 276L309 276L309 326L463 326L463 256L617 256L617 307L771 307L771 295L926 295L926 401L1080 401L1080 419L1080 0L1080 0L926 0L926 0L771 0L771 0L617 0L617 0L463 0L463 0L309 0L309 0L154 0L154 0L0 0Z" fill="#7700c6"></path><path d="M0 162L154 162L154 139L309 139L309 134L463 134L463 229L617 229L617 192L771 192L771 284L926 284L926 167L1080 167L1080 227L1080 0L1080 0L926 0L926 0L771 0L771 0L617 0L617 0L463 0L463 0L309 0L309 0L154 0L154 0L0 0Z" fill="#560090"></path></svg>