<svg id="visual" viewBox="0 0 1920 1080" width="1920" height="1080" xmlns="http://www.w3.org/2000/svg" xmlns:xlink="http://www.w3.org/1999/xlink" version="1.1"><rect x="0" y="0" width="1920" height="1080" fill="#140021"></rect><path d="M1435 1080L1397 1080L1397 926L1486 926L1486 771L1475 771L1475 617L1474 617L1474 463L1401 463L1401 309L1400 309L1400 154L1482 154L1482 0L1920 0L1920 154L1920 154L1920 309L1920 309L1920 463L1920 463L1920 617L1920 617L1920 771L1920 771L1920 926L1920 926L1920 1080L1920 1080Z" fill="#9900ff"></path><path d="M1612 1080L1644 1080L1644 926L1594 926L1594 771L1664 771L1664 617L1613 617L1613 463L1625 463L1625 309L1519 309L1519 154L1501 154L1501 0L1920 0L1920 154L1920 154L1920 309L1920 309L1920 463L1920 463L1920 617L1920 617L1920 771L1920 771L1920 926L1920 926L1920 1080L1920 1080Z" fill="#7700c6"></path><path d="M1758 1080L1781 1080L1781 926L1786 926L1786 771L1691 771L1691 617L1728 617L1728 463L1636 463L1636 309L1753 309L1753 154L1693 154L1693 0L1920 0L1920 154L1920 154L1920 309L1920 309L1920 463L1920 463L1920 617L1920 617L1920 771L1920 771L1920 926L1920 926L1920 1080L1920 1080Z" fill="#560090"></path></svg>