<svg id="visual" viewBox="0 0 1080 1920" width="1080" height="1920" xmlns="http://www.w3.org/2000/svg" xmlns:xlink="http://www.w3.org/1999/xlink" version="1.1"><rect x="0" y="0" width="1080" height="1920" fill="#140021"></rect><path d="M0 1433L154 1433L154 1395L309 1395L309 1484L463 1484L463 1473L617 1473L617 1472L771 1472L771 1399L926 1399L926 1398L1080 1398L1080 1480L1080 1921L1080 1921L926 1921L926 1921L771 1921L771 1921L617 1921L617 1921L463 1921L463 1921L309 1921L309 1921L154 1921L154 1921L0 1921Z" fill="#9900ff"></path><path d="M0 1610L154 1610L154 1642L309 1642L309 1592L463 1592L463 1662L617 1662L617 1611L771 1611L771 1623L926 1623L926 1517L1080 1517L1080 1499L1080 1921L1080 1921L926 1921L926 1921L771 1921L771 1921L617 1921L617 1921L463 1921L463 1921L309 1921L309 1921L154 1921L154 1921L0 1921Z" fill="#7700c6"></path><path d="M0 1756L154 1756L154 1779L309 1779L309 1784L463 1784L463 1689L617 1689L617 1726L771 1726L771 1634L926 1634L926 1751L1080 1751L1080 1691L1080 1921L1080 1921L926 1921L926 1921L771 1921L771 1921L617 1921L617 1921L463 1921L463 1921L309 1921L309 1921L154 1921L154 1921L0 1921Z" fill="#560090"></path></svg>