<svg id="visual" viewBox="0 0 900 500" width="900" height="500" xmlns="http://www.w3.org/2000/svg" xmlns:xlink="http://www.w3.org/1999/xlink" version="1.1"><rect x="0" y="0" width="900" height="500" fill="#140021"></rect><path d="M503 500L471 500L471 429L544 429L544 357L535 357L535 286L534 286L534 214L474 214L474 143L474 143L474 71L541 71L541 0L900 0L900 71L900 71L900 143L900 143L900 214L900 214L900 286L900 286L900 357L900 357L900 429L900 429L900 500L900 500Z" fill="#9900ff"></path><path d="M647 500L673 500L673 429L633 429L633 357L690 357L690 286L648 286L648 214L658 214L658 143L571 143L571 71L557 71L557 0L900 0L900 71L900 71L900 143L900 143L900 214L900 214L900 286L900 286L900 357L900 357L900 429L900 429L900 500L900 500Z" fill="#7700c6"></path><path d="M767 500L786 500L786 429L790 429L790 357L712 357L712 286L742 286L742 214L667 214L667 143L763 143L763 71L714 71L714 0L900 0L900 71L900 71L900 143L900 143L900 214L900 214L900 286L900 286L900 357L900 357L900 429L900 429L900 500L900 500Z" fill="#560090"></path></svg>