<svg id="visual" viewBox="0 0 1080 1920" width="1080" height="1920" xmlns="http://www.w3.org/2000/svg" xmlns:xlink="http://www.w3.org/1999/xlink" version="1.1"><rect x="0" y="0" width="1080" height="1920" fill="#140021"></rect><path d="M0 849L154 849L154 916L309 916L309 760L463 760L463 780L617 780L617 782L771 782L771 909L926 909L926 910L1080 910L1080 767L1080 0L1080 0L926 0L926 0L771 0L771 0L617 0L617 0L463 0L463 0L309 0L309 0L154 0L154 0L0 0Z" fill="#9900ff"></path><path d="M0 540L154 540L154 485L309 485L309 572L463 572L463 449L617 449L617 539L771 539L771 517L926 517L926 703L1080 703L1080 734L1080 0L1080 0L926 0L926 0L771 0L771 0L617 0L617 0L463 0L463 0L309 0L309 0L154 0L154 0L0 0Z" fill="#7700c6"></path><path d="M0 284L154 284L154 244L309 244L309 236L463 236L463 402L617 402L617 337L771 337L771 498L926 498L926 294L1080 294L1080 397L1080 0L1080 0L926 0L926 0L771 0L771 0L617 0L617 0L463 0L463 0L309 0L309 0L154 0L154 0L0 0Z" fill="#560090"></path></svg>