<svg id="visual" viewBox="0 0 1080 1920" width="1080" height="1920" xmlns="http://www.w3.org/2000/svg" xmlns:xlink="http://www.w3.org/1999/xlink" version="1.1"><rect x="0" y="0" width="1080" height="1920" fill="#140021"></rect><path d="M0 1069L154 1069L154 1002L309 1002L309 1158L463 1158L463 1138L617 1138L617 1136L771 1136L771 1009L926 1009L926 1008L1080 1008L1080 1151L1080 1921L1080 1921L926 1921L926 1921L771 1921L771 1921L617 1921L617 1921L463 1921L463 1921L309 1921L309 1921L154 1921L154 1921L0 1921Z" fill="#9900ff"></path><path d="M0 1378L154 1378L154 1433L309 1433L309 1346L463 1346L463 1469L617 1469L617 1379L771 1379L771 1401L926 1401L926 1215L1080 1215L1080 1184L1080 1921L1080 1921L926 1921L926 1921L771 1921L771 1921L617 1921L617 1921L463 1921L463 1921L309 1921L309 1921L154 1921L154 1921L0 1921Z" fill="#7700c6"></path><path d="M0 1634L154 1634L154 1674L309 1674L309 1682L463 1682L463 1516L617 1516L617 1581L771 1581L771 1420L926 1420L926 1624L1080 1624L1080 1521L1080 1921L1080 1921L926 1921L926 1921L771 1921L771 1921L617 1921L617 1921L463 1921L463 1921L309 1921L309 1921L154 1921L154 1921L0 1921Z" fill="#560090"></path></svg>