<svg id="visual" viewBox="0 0 540 960" width="540" height="960" xmlns="http://www.w3.org/2000/svg" xmlns:xlink="http://www.w3.org/1999/xlink" version="1.1"><rect x="0" y="0" width="540" height="960" fill="#140021"></rect><path d="M0 519L77 519L77 438L154 438L154 485L231 485L231 348L309 348L309 368L386 368L386 424L463 424L463 523L540 523L540 472L540 961L540 961L463 961L463 961L386 961L386 961L309 961L309 961L231 961L231 961L154 961L154 961L77 961L77 961L0 961Z" fill="#9900ff"></path><path d="M0 509L77 509L77 500L154 500L154 502L231 502L231 652L309 652L309 500L386 500L386 649L463 649L463 648L540 648L540 515L540 961L540 961L463 961L463 961L386 961L386 961L309 961L309 961L231 961L231 961L154 961L154 961L77 961L77 961L0 961Z" fill="#7700c6"></path><path d="M0 743L77 743L77 672L154 672L154 773L231 773L231 763L309 763L309 681L386 681L386 733L463 733L463 738L540 738L540 779L540 961L540 961L463 961L463 961L386 961L386 961L309 961L309 961L231 961L231 961L154 961L154 961L77 961L77 961L0 961Z" fill="#560090"></path></svg>